<?xml version="1.0" standalone="no"?>
<!DOCTYPE svg PUBLIC "-//W3C//DTD SVG 20010904//EN"
 "http://www.w3.org/TR/2001/REC-SVG-20010904/DTD/svg10.dtd">
<svg version="1.0" xmlns="http://www.w3.org/2000/svg"
 width="50pt" height="50pt" viewBox="0 0 512.000000 512.000000"
 preserveAspectRatio="xMidYMid meet">

<g transform="translate(0.000000,512.000000) scale(0.100000,-0.100000)"
fill="#000000" stroke="none">
<path d="M960 4786 c-147 -41 -267 -162 -306 -310 -20 -76 -20 -3116 0 -3192
29 -111 118 -224 214 -273 95 -48 127 -51 607 -51 l450 0 318 -318 317 -318
317 318 318 318 447 0 c289 0 466 4 500 11 157 33 293 170 327 327 16 75 16
3089 0 3164 -33 153 -158 283 -313 324 -72 19 -3127 19 -3196 0z m1735 -708
c199 -41 378 -221 426 -428 44 -191 -15 -395 -156 -535 -115 -115 -250 -170
-415 -168 -261 3 -492 188 -550 442 -44 188 14 395 148 530 150 151 333 204
547 159z m124 -1434 c209 -30 472 -109 636 -192 168 -84 303 -203 353 -309 24
-52 27 -71 30 -195 l4 -138 -1282 0 -1282 0 4 138 c3 124 6 143 30 195 97 206
437 392 883 481 233 47 396 52 624 20z"/>
</g>
</svg>
