<?xml version="1.0" standalone="no"?>
<!DOCTYPE svg PUBLIC "-//W3C//DTD SVG 20010904//EN"
 "http://www.w3.org/TR/2001/REC-SVG-20010904/DTD/svg10.dtd">
<svg version="1.0" xmlns="http://www.w3.org/2000/svg"
 width="50pt" height="50pt" viewBox="0 0 512.000000 512.000000"
 preserveAspectRatio="xMidYMid meet">

<g transform="translate(0.000000,512.000000) scale(0.100000,-0.100000)"
fill="#000000" stroke="none">
<path d="M2405 5110 c-327 -51 -625 -268 -773 -565 -70 -140 -112 -309 -112
-450 l0 -54 -293 -3 -294 -3 -42 -28 c-82 -54 -66 75 -217 -1787 -95 -1175
-134 -1704 -131 -1772 3 -85 8 -105 40 -173 42 -88 122 -173 203 -217 112 -60
31 -58 1770 -58 1025 0 1610 4 1645 10 140 26 271 130 336 265 32 68 37 88 40
173 3 68 -36 598 -131 1772 -151 1862 -135 1733 -217 1787 l-42 28 -294 3
-293 3 0 57 c0 31 -7 98 -15 147 -66 410 -372 741 -780 846 -92 23 -305 33
-400 19z m370 -384 c265 -91 447 -326 463 -598 l5 -88 -682 0 -681 0 0 63 c0
35 9 99 20 141 63 247 244 429 492 496 108 29 274 23 383 -14z m-1255 -1505
c0 -301 4 -469 11 -488 13 -34 55 -80 91 -99 34 -18 109 -18 151 0 42 17 83
66 97 114 6 23 10 208 10 485 l0 447 680 0 680 0 0 -447 c0 -277 4 -462 10
-485 14 -48 55 -97 97 -114 42 -18 117 -18 151 0 36 19 78 65 91 99 7 19 11
187 11 488 l0 459 185 0 c141 0 185 -3 185 -12 0 -7 58 -732 130 -1611 83
-1030 126 -1606 120 -1621 -4 -12 -23 -35 -40 -49 l-32 -27 -1588 0 -1588 0
-32 27 c-17 14 -36 37 -40 49 -6 15 37 592 120 1621 72 879 130 1604 130 1611
0 9 44 12 185 12 l185 0 0 -459z"/>
</g>
</svg>
