<?xml version="1.0" standalone="no"?>
<!DOCTYPE svg PUBLIC "-//W3C//DTD SVG 20010904//EN"
 "http://www.w3.org/TR/2001/REC-SVG-20010904/DTD/svg10.dtd">
<svg version="1.0" xmlns="http://www.w3.org/2000/svg"
 width="50pt" height="50pt" viewBox="0 0 512.000000 512.000000"
 preserveAspectRatio="xMidYMid meet">

<g transform="translate(0.000000,512.000000) scale(0.100000,-0.100000)"
fill="#000000" stroke="none">
<path d="M435 4373 c-107 -15 -211 -68 -288 -146 -67 -68 -107 -138 -131 -232
-65 -247 92 -515 346 -589 75 -22 197 -21 274 3 167 51 294 184 339 358 64
246 -91 513 -342 588 -51 16 -154 25 -198 18z"/>
<path d="M1543 4191 c-226 -78 -293 -371 -123 -541 23 -23 67 -54 99 -69 l56
-26 1645 0 1645 0 55 26 c80 37 125 81 162 157 28 56 33 77 33 137 0 121 -39
200 -133 272 -88 67 23 63 -1766 63 -1530 -1 -1624 -2 -1673 -19z"/>
<path d="M434 3050 c-206 -29 -366 -173 -419 -377 -50 -191 36 -409 207 -522
197 -132 454 -106 621 62 195 197 195 497 0 694 -110 111 -260 163 -409 143z"/>
<path d="M1563 2875 c-149 -46 -237 -164 -238 -315 0 -66 5 -85 33 -142 37
-76 82 -120 162 -157 l55 -26 1615 -3 c1695 -3 1685 -4 1760 41 255 149 208
528 -75 603 -73 20 -3249 19 -3312 -1z"/>
<path d="M350 1710 c-249 -80 -398 -341 -334 -585 24 -94 64 -164 131 -232 97
-98 213 -147 348 -146 138 0 254 49 350 147 66 68 106 139 130 231 63 247 -89
510 -339 586 -79 24 -210 24 -286 -1z"/>
<path d="M1577 1559 c-96 -23 -182 -94 -225 -188 -37 -79 -37 -183 0 -262 35
-76 88 -133 156 -166 l57 -28 1635 -3 c1805 -3 1693 -6 1782 61 94 72 133 151
133 272 0 60 -5 81 -33 137 -37 76 -82 120 -162 157 l-55 26 -1625 2 c-927 0
-1641 -3 -1663 -8z"/>
</g>
</svg>
