<?xml version="1.0" standalone="no"?>
<!DOCTYPE svg PUBLIC "-//W3C//DTD SVG 20010904//EN"
 "http://www.w3.org/TR/2001/REC-SVG-20010904/DTD/svg10.dtd">
<svg version="1.0" xmlns="http://www.w3.org/2000/svg"
 width="512.000000pt" height="512.000000pt" viewBox="0 0 512.000000 512.000000"
 preserveAspectRatio="xMidYMid meet">

<g transform="translate(0.000000,512.000000) scale(0.100000,-0.100000)"
fill="#000000" stroke="none">
<path d="M2380 5113 c-485 -47 -848 -169 -1220 -410 -257 -167 -523 -426 -702
-684 -430 -618 -563 -1388 -369 -2125 57 -215 174 -487 294 -680 55 -89 83
-114 128 -114 28 0 79 53 79 82 0 13 -32 77 -72 143 -170 283 -277 588 -324
920 -21 145 -23 456 -5 595 90 701 465 1313 1041 1700 396 266 842 402 1320
403 260 1 462 -28 697 -99 911 -275 1566 -1057 1684 -2009 16 -129 16 -421 0
-550 -89 -716 -480 -1343 -1083 -1733 -825 -533 -1915 -497 -2703 88 -49 37
-110 83 -134 103 -23 21 -53 40 -65 43 -35 8 -75 -13 -93 -50 -24 -51 -6 -82
96 -164 198 -161 497 -330 735 -417 534 -196 1132 -205 1676 -25 973 320 1660
1188 1750 2210 48 548 -84 1099 -375 1570 -181 291 -467 587 -753 778 -81 54
-118 76 -244 145 -192 106 -504 209 -753 251 -182 30 -457 44 -605 29z"/>
<path d="M2430 4699 c-234 -12 -540 -83 -692 -160 -72 -36 -66 -131 10 -160
16 -6 40 -3 80 12 113 42 289 91 402 111 154 28 484 31 635 5 127 -22 310 -71
389 -103 80 -33 119 -34 150 -5 33 31 40 65 21 102 -19 35 -55 52 -214 103
-254 80 -494 109 -781 95z"/>
<path d="M2360 4270 c-325 -46 -618 -168 -865 -362 -128 -100 -300 -290 -388
-429 -58 -91 -132 -247 -170 -355 -195 -559 -89 -1172 283 -1639 61 -76 207
-220 285 -281 626 -488 1506 -482 2125 13 523 418 756 1095 601 1744 -70 297
-238 595 -456 814 -102 101 -269 229 -363 276 l-64 33 -36 -19 c-45 -25 -61
-69 -41 -110 9 -17 47 -49 96 -79 383 -238 639 -618 715 -1061 26 -156 21
-439 -11 -577 -48 -208 -137 -409 -254 -575 -79 -112 -248 -281 -360 -360
-169 -119 -372 -209 -578 -255 -91 -20 -130 -23 -319 -23 -239 0 -301 9 -490
72 -225 75 -427 200 -600 373 -322 323 -476 735 -448 1203 21 362 180 710 448
977 172 172 378 300 602 374 251 84 426 97 760 60 54 -6 58 -5 87 24 62 61 27
125 -80 149 -78 17 -390 25 -479 13z"/>
<path d="M1955 3456 c-75 -35 -376 -214 -404 -239 -13 -12 -34 -44 -47 -72
-23 -48 -24 -58 -24 -301 0 -352 -11 -335 309 -517 167 -96 196 -109 248 -114
67 -6 117 9 198 58 76 46 93 99 48 151 -30 33 -67 32 -146 -7 -71 -35 -76 -36
-108 -22 -66 28 -334 188 -356 213 -22 24 -23 31 -23 240 l0 216 28 27 c15 15
105 71 199 125 135 77 178 97 197 92 31 -8 342 -187 374 -214 l22 -20 0 -504
c0 -573 0 -574 73 -652 41 -44 263 -181 402 -247 73 -35 148 -38 212 -9 73 33
377 211 407 239 16 14 39 49 52 76 23 48 24 58 24 301 0 353 11 334 -312 519
l-192 110 -75 0 c-71 0 -81 -3 -154 -43 -42 -24 -82 -52 -87 -62 -30 -56 10
-130 69 -130 17 0 61 16 97 35 44 24 74 33 88 29 40 -12 351 -195 374 -220 21
-24 22 -31 22 -234 0 -131 -4 -218 -11 -233 -16 -36 -375 -240 -410 -233 -33
6 -359 193 -381 218 -17 19 -18 58 -18 522 0 420 -2 511 -15 553 -25 84 -77
129 -280 246 -99 57 -195 109 -214 115 -55 19 -130 15 -186 -12z"/>
<path d="M622 3425 c-23 -10 -36 -28 -60 -87 -57 -137 -109 -345 -132 -528
-13 -108 -13 -390 0 -500 22 -182 82 -420 140 -554 32 -76 100 -94 151 -40 30
32 28 64 -9 159 -80 210 -116 418 -116 685 0 267 36 475 116 685 37 95 39 127
9 159 -28 30 -61 37 -99 21z"/>
<path d="M4435 3430 c-32 -12 -58 -48 -58 -78 0 -15 14 -63 31 -107 80 -210
116 -418 116 -685 0 -267 -36 -475 -116 -685 -37 -95 -39 -127 -9 -159 50 -54
119 -36 151 39 27 64 78 226 100 319 71 308 69 686 -7 996 -38 156 -101 329
-127 345 -31 19 -58 25 -81 15z"/>
<path d="M1745 741 c-54 -22 -75 -81 -46 -127 15 -25 37 -37 122 -68 207 -74
388 -112 604 -125 289 -18 569 20 835 111 141 49 146 52 165 88 19 36 12 70
-20 100 -31 29 -66 27 -163 -9 -218 -81 -416 -115 -682 -115 -270 0 -452 31
-693 119 -54 19 -99 35 -100 34 -1 0 -11 -4 -22 -8z"/>
</g>
</svg>
