<?xml version="1.0" standalone="no"?>
<!DOCTYPE svg PUBLIC "-//W3C//DTD SVG 20010904//EN"
 "http://www.w3.org/TR/2001/REC-SVG-20010904/DTD/svg10.dtd">
<svg version="1.0" xmlns="http://www.w3.org/2000/svg"
 width="512.000000pt" height="512.000000pt" viewBox="0 0 512.000000 512.000000"
 preserveAspectRatio="xMidYMid meet">

<g transform="translate(0.000000,512.000000) scale(0.100000,-0.100000)"
fill="#000000" stroke="none">
<path d="M1214 4795 c-627 -92 -1117 -587 -1199 -1212 -50 -378 41 -725 273
-1043 70 -95 2151 -2183 2204 -2211 45 -23 88 -24 131 -3 44 22 2113 2089
2191 2189 78 98 108 146 161 255 50 101 97 242 119 359 63 329 1 688 -167 976
-139 237 -352 434 -602 556 -203 99 -391 142 -620 142 -229 0 -417 -43 -620
-142 -151 -74 -251 -146 -404 -289 l-121 -114 -112 107 c-131 126 -219 194
-342 264 -262 149 -589 210 -892 166z m394 -296 c85 -13 212 -54 297 -96 132
-66 209 -127 396 -309 266 -260 254 -260 508 -10 97 95 205 193 241 218 202
142 410 208 654 208 178 0 337 -36 485 -108 430 -211 673 -644 630 -1121 -25
-269 -129 -485 -343 -708 -57 -60 -512 -513 -1010 -1007 l-907 -900 -1005
1005 c-851 849 -1015 1018 -1066 1094 -150 223 -212 467 -187 735 25 266 133
495 324 685 262 262 603 371 983 314z"/>
</g>
</svg>
